<!--?xml version="1.0" standalone="no"?-->
              <svg id="sw-js-blob-svg" viewBox="0 0 100 100" xmlns="http://www.w3.org/2000/svg" version="1.1">
                    <defs> 
                        <linearGradient id="sw-gradient" x1="0" x2="1" y1="1" y2="0">
                            <stop id="stop1" stop-color="rgba(248, 117, 55, 1)" offset="0%"></stop>
                            <stop id="stop2" stop-color="rgba(251, 168, 31, 1)" offset="100%"></stop>
                        </linearGradient>
                    </defs>
                <path fill="url(#sw-gradient)" d="M23.6,-28.4C31.2,-21.7,38.5,-14.9,41.2,-6.2C44,2.4,42.2,12.9,36.5,19.4C30.7,26,21,28.6,12.5,29.7C4,30.7,-3.4,30.2,-10.9,28.2C-18.3,26.2,-25.9,22.8,-31.8,16.4C-37.8,10.1,-42.1,1,-41.3,-7.9C-40.5,-16.8,-34.5,-25.4,-26.8,-32.1C-19.1,-38.7,-9.5,-43.3,-0.8,-42.4C8,-41.4,16,-35,23.6,-28.4Z" width="100%" height="100%" transform="translate(50 50)" stroke-width="0" style="transition: all 0.3s ease 0s;"></path>
              </svg>